<svg width="158" height="95" viewBox="0 0 158 95" fill="none" xmlns="http://www.w3.org/2000/svg">
<path d="M158 5.748V89.2499C158 92.4135 155.384 94.9979 152.182 94.9979H5.81844C5.4125 94.9979 5.00657 94.9534 4.64573 94.8642C1.98458 94.3295 0 92.0125 0 89.2499V5.748C0 2.58437 2.61604 0 5.81844 0H152.227C155.384 0 158 2.58437 158 5.748Z" fill="url(#paint0_linear_108_2)"/>
<path d="M158 75.3325V89.1541C158 92.3716 155.373 95 152.157 95H5.17765C4.77 95 4.36235 94.9547 4 94.864C5.26824 94.3202 6.53647 93.7311 7.80471 93.1873C15.6406 89.7432 23.1141 85.5288 29.9535 80.408C31.4482 79.2751 33.0335 78.2328 34.8 77.2811C38.2876 76.1935 41.4582 75.1512 44.1306 74.109C48.7053 72.3869 52.0118 70.7102 53.6876 68.7616C57.7641 64.0939 57.2659 53.8977 62.4294 53.6258C69.8576 53.2179 73.4812 66.4504 74.3418 70.6196C75.2476 74.7887 83.5365 74.6074 83.5365 74.6074C83.5365 74.6074 86.2994 70.2117 89.9229 65.5441C93.1841 61.3296 97.17 56.8433 100.476 55.2119C106.048 52.4022 110.486 59.7435 113.657 65.816C114.472 67.3568 115.197 68.8069 115.831 69.9851C118.956 75.831 120.496 77.1905 123.214 70.7555C124.346 68.1271 125.343 64.6377 126.702 61.3296C128.649 56.5714 131.276 52.1756 135.851 51.1333C140.834 50.0004 144.955 56.2995 148.307 61.9641C150.164 65.0909 151.749 67.9912 153.108 69.396C154.105 70.4383 155.916 72.6135 158 75.3325Z" fill="url(#paint1_linear_108_2)"/>
<path d="M158 47V89.1914C158 92.3884 155.373 95 152.157 95H5.17765C4.77 95 4.36235 94.955 4 94.8649C5.26824 94.3246 6.53647 93.7392 7.80471 93.1989C15.6406 89.7767 23.1141 85.5891 29.9535 80.5009C31.4482 79.3752 33.0335 78.3396 34.8 77.394C37.3365 76.0882 40.2806 75.0075 44.1306 74.242C45.5347 73.9719 47.0747 73.7467 48.7959 73.5666C64.3318 72.0357 64.6035 78.2045 71.0353 73.5666C72.3035 72.666 73.3906 71.6754 74.3418 70.7749C78.2824 66.9925 80.6829 63.7505 89.4247 65.5966C89.6059 65.6416 89.7418 65.6867 89.9229 65.7317C100.431 68.1182 104.236 73.1614 108.176 71.2702C110.034 70.3696 111.8 68.1632 113.702 65.9568C115.876 63.3902 118.141 60.8687 120.723 60.4634C123.259 60.0582 125.071 60.3734 126.747 61.5441C128.242 62.5347 129.601 64.2008 131.231 66.5422C134.719 71.5854 138.116 73.7017 142.6 72.3508C145.906 71.3602 147.22 66.5422 148.352 62.1745C148.76 60.6886 149.122 59.2477 149.575 58.0769C151.161 53.4841 153.154 47.3152 158 47Z" fill="url(#paint2_linear_108_2)"/>
<path d="M15.256 20.096C14.408 20.096 13.7067 19.816 13.152 19.256C12.5973 18.696 12.32 18.0107 12.32 17.2C12.32 16.3893 12.5973 15.704 13.152 15.144C13.7067 14.584 14.408 14.304 15.256 14.304C15.7733 14.304 16.248 14.4293 16.68 14.68C17.112 14.9253 17.4453 15.2587 17.68 15.68L17.184 15.968C17.008 15.6267 16.7467 15.3547 16.4 15.152C16.0533 14.9493 15.672 14.848 15.256 14.848C14.5573 14.848 13.9867 15.0747 13.544 15.528C13.1013 15.9813 12.88 16.5387 12.88 17.2C12.88 17.8613 13.1013 18.4187 13.544 18.872C13.9867 19.3253 14.5573 19.552 15.256 19.552C15.672 19.552 16.0533 19.4507 16.4 19.248C16.7467 19.0453 17.008 18.7733 17.184 18.432L17.68 18.712C17.4507 19.1333 17.1173 19.4693 16.68 19.72C16.248 19.9707 15.7733 20.096 15.256 20.096ZM21.3369 16H21.8649V20H21.3369V19.376C21.0383 19.856 20.5903 20.096 19.9929 20.096C19.5076 20.096 19.1236 19.9493 18.8409 19.656C18.5636 19.3573 18.4249 18.9573 18.4249 18.456V16H18.9529V18.456C18.9529 18.8133 19.0463 19.0907 19.2329 19.288C19.4249 19.4853 19.6943 19.584 20.0409 19.584C20.4249 19.584 20.7369 19.464 20.9769 19.224C21.2169 18.9787 21.3369 18.6027 21.3369 18.096V16ZM23.5099 16.664C23.7552 16.1787 24.1765 15.936 24.7739 15.936V16.448C24.4112 16.448 24.1099 16.5547 23.8699 16.768C23.6299 16.9813 23.5099 17.3173 23.5099 17.776V20H22.9819V16H23.5099V16.664ZM26.0255 16.664C26.2708 16.1787 26.6922 15.936 27.2895 15.936V16.448C26.9268 16.448 26.6255 16.5547 26.3855 16.768C26.1455 16.9813 26.0255 17.3173 26.0255 17.776V20H25.4975V16H26.0255V16.664ZM29.6189 15.904C30.2109 15.904 30.6883 16.1147 31.0509 16.536C31.4189 16.952 31.6029 17.4453 31.6029 18.016C31.6029 18.0747 31.5976 18.1573 31.5869 18.264H28.0749C28.1283 18.6693 28.2989 18.992 28.5869 19.232C28.8803 19.4667 29.2403 19.584 29.6669 19.584C29.9709 19.584 30.2323 19.5227 30.4509 19.4C30.6749 19.272 30.8429 19.1067 30.9549 18.904L31.4189 19.176C31.2429 19.4587 31.0029 19.6827 30.6989 19.848C30.3949 20.0133 30.0483 20.096 29.6589 20.096C29.0296 20.096 28.5176 19.8987 28.1229 19.504C27.7283 19.1093 27.5309 18.608 27.5309 18C27.5309 17.4027 27.7256 16.904 28.1149 16.504C28.5043 16.104 29.0056 15.904 29.6189 15.904ZM29.6189 16.416C29.2029 16.416 28.8536 16.5413 28.5709 16.792C28.2936 17.0373 28.1283 17.3573 28.0749 17.752H31.0589C31.0056 17.3307 30.8429 17.0027 30.5709 16.768C30.2989 16.5333 29.9816 16.416 29.6189 16.416ZM34.3148 15.904C34.8001 15.904 35.1815 16.0533 35.4588 16.352C35.7415 16.6453 35.8828 17.0427 35.8828 17.544V20H35.3548V17.544C35.3548 17.1867 35.2588 16.9093 35.0668 16.712C34.8801 16.5147 34.6135 16.416 34.2668 16.416C33.8828 16.416 33.5708 16.5387 33.3308 16.784C33.0908 17.024 32.9708 17.3973 32.9708 17.904V20H32.4428V16H32.9708V16.624C33.2695 16.144 33.7175 15.904 34.3148 15.904ZM39.0238 16.512H37.8718V18.936C37.8718 19.1547 37.9144 19.312 37.9998 19.408C38.0851 19.4987 38.2131 19.5467 38.3838 19.552C38.5544 19.552 38.7678 19.5467 39.0238 19.536V20C38.4638 20.0853 38.0424 20.0453 37.7598 19.88C37.4824 19.7147 37.3438 19.4 37.3438 18.936V16.512H36.5038V16H37.3438V15.04L37.8718 14.88V16H39.0238V16.512ZM45.0878 17.096C45.3598 17.2133 45.5758 17.392 45.7358 17.632C45.9011 17.8667 45.9838 18.136 45.9838 18.44C45.9838 18.872 45.8318 19.24 45.5278 19.544C45.2238 19.848 44.8558 20 44.4238 20H41.9838V14.4H44.2398C44.6558 14.4 45.0104 14.5493 45.3038 14.848C45.5971 15.1413 45.7438 15.4933 45.7438 15.904C45.7438 16.4267 45.5251 16.824 45.0878 17.096ZM44.2398 14.928H42.5438V16.88H44.2398C44.5011 16.88 44.7224 16.7867 44.9038 16.6C45.0904 16.408 45.1838 16.176 45.1838 15.904C45.1838 15.6373 45.0904 15.408 44.9038 15.216C44.7224 15.024 44.5011 14.928 44.2398 14.928ZM44.4238 19.472C44.7011 19.472 44.9358 19.3733 45.1278 19.176C45.3251 18.9733 45.4238 18.728 45.4238 18.44C45.4238 18.1573 45.3251 17.9147 45.1278 17.712C44.9358 17.5093 44.7011 17.408 44.4238 17.408H42.5438V19.472H44.4238ZM50.3047 16H50.8327V20H50.3047V19.216C49.9367 19.8027 49.398 20.096 48.6887 20.096C48.118 20.096 47.63 19.8933 47.2247 19.488C46.8247 19.0827 46.6247 18.5867 46.6247 18C46.6247 17.4133 46.8247 16.9173 47.2247 16.512C47.63 16.1067 48.118 15.904 48.6887 15.904C49.398 15.904 49.9367 16.1973 50.3047 16.784V16ZM47.6087 19.128C47.9127 19.432 48.286 19.584 48.7287 19.584C49.1714 19.584 49.5447 19.432 49.8487 19.128C50.1527 18.8187 50.3047 18.4427 50.3047 18C50.3047 17.5573 50.1527 17.184 49.8487 16.88C49.5447 16.5707 49.1714 16.416 48.7287 16.416C48.286 16.416 47.9127 16.5707 47.6087 16.88C47.3047 17.184 47.1527 17.5573 47.1527 18C47.1527 18.4427 47.3047 18.8187 47.6087 19.128ZM51.9506 20V14.16H52.4786V20H51.9506ZM57.0391 16H57.5671V20H57.0391V19.216C56.6711 19.8027 56.1324 20.096 55.4231 20.096C54.8524 20.096 54.3644 19.8933 53.9591 19.488C53.5591 19.0827 53.3591 18.5867 53.3591 18C53.3591 17.4133 53.5591 16.9173 53.9591 16.512C54.3644 16.1067 54.8524 15.904 55.4231 15.904C56.1324 15.904 56.6711 16.1973 57.0391 16.784V16ZM54.3431 19.128C54.6471 19.432 55.0204 19.584 55.4631 19.584C55.9057 19.584 56.2791 19.432 56.5831 19.128C56.8871 18.8187 57.0391 18.4427 57.0391 18C57.0391 17.5573 56.8871 17.184 56.5831 16.88C56.2791 16.5707 55.9057 16.416 55.4631 16.416C55.0204 16.416 54.6471 16.5707 54.3431 16.88C54.0391 17.184 53.8871 17.5573 53.8871 18C53.8871 18.4427 54.0391 18.8187 54.3431 19.128ZM60.557 15.904C61.0423 15.904 61.4237 16.0533 61.701 16.352C61.9837 16.6453 62.125 17.0427 62.125 17.544V20H61.597V17.544C61.597 17.1867 61.501 16.9093 61.309 16.712C61.1223 16.5147 60.8557 16.416 60.509 16.416C60.125 16.416 59.813 16.5387 59.573 16.784C59.333 17.024 59.213 17.3973 59.213 17.904V20H58.685V16H59.213V16.624C59.5117 16.144 59.9597 15.904 60.557 15.904ZM65.0099 20.096C64.4073 20.096 63.9059 19.896 63.5059 19.496C63.1059 19.0907 62.9059 18.592 62.9059 18C62.9059 17.408 63.1059 16.912 63.5059 16.512C63.9059 16.1067 64.4073 15.904 65.0099 15.904C65.4046 15.904 65.7593 16 66.0739 16.192C66.3886 16.3787 66.6179 16.632 66.7619 16.952L66.3299 17.2C66.2233 16.96 66.0499 16.7707 65.8099 16.632C65.5753 16.488 65.3086 16.416 65.0099 16.416C64.5673 16.416 64.1939 16.5707 63.8899 16.88C63.5859 17.184 63.4339 17.5573 63.4339 18C63.4339 18.4427 63.5859 18.8187 63.8899 19.128C64.1939 19.432 64.5673 19.584 65.0099 19.584C65.3086 19.584 65.5753 19.5147 65.8099 19.376C66.0446 19.232 66.2286 19.04 66.3619 18.8L66.8019 19.056C66.6366 19.376 66.3939 19.6293 66.0739 19.816C65.7539 20.0027 65.3993 20.096 65.0099 20.096ZM69.3689 15.904C69.9609 15.904 70.4383 16.1147 70.8009 16.536C71.1689 16.952 71.3529 17.4453 71.3529 18.016C71.3529 18.0747 71.3476 18.1573 71.3369 18.264H67.8249C67.8783 18.6693 68.0489 18.992 68.3369 19.232C68.6303 19.4667 68.9903 19.584 69.4169 19.584C69.7209 19.584 69.9823 19.5227 70.2009 19.4C70.4249 19.272 70.5929 19.1067 70.7049 18.904L71.1689 19.176C70.9929 19.4587 70.7529 19.6827 70.4489 19.848C70.1449 20.0133 69.7983 20.096 69.4089 20.096C68.7796 20.096 68.2676 19.8987 67.8729 19.504C67.4783 19.1093 67.2809 18.608 67.2809 18C67.2809 17.4027 67.4756 16.904 67.8649 16.504C68.2543 16.104 68.7556 15.904 69.3689 15.904ZM69.3689 16.416C68.9529 16.416 68.6036 16.5413 68.3209 16.792C68.0436 17.0373 67.8783 17.3573 67.8249 17.752H70.8089C70.7556 17.3307 70.5929 17.0027 70.3209 16.768C70.0489 16.5333 69.7316 16.416 69.3689 16.416Z" fill="white"/>
<path d="M19.336 37.256C19.336 38.0773 19.0747 38.7447 18.552 39.258C18.0293 39.762 17.348 40.0653 16.508 40.168V41.4H15.57V40.182C14.786 40.126 14.114 39.9067 13.554 39.524C12.994 39.1413 12.5927 38.6233 12.35 37.97L14.016 37.004C14.3147 37.7507 14.8327 38.1753 15.57 38.278V35.856C15.5607 35.856 15.556 35.856 15.556 35.856L15.528 35.842C15.2013 35.7207 14.9353 35.6133 14.73 35.52C14.5247 35.4267 14.282 35.2913 14.002 35.114C13.7313 34.9367 13.5167 34.7547 13.358 34.568C13.2087 34.372 13.0733 34.1247 12.952 33.826C12.84 33.5273 12.784 33.2007 12.784 32.846C12.784 32.0247 13.05 31.3667 13.582 30.872C14.1233 30.3773 14.786 30.0927 15.57 30.018V28.8H16.508V30.046C17.7773 30.1953 18.6733 30.8533 19.196 32.02L17.572 32.972C17.348 32.412 16.9933 32.0713 16.508 31.95V34.288C17.376 34.6333 17.9593 34.9087 18.258 35.114C18.9767 35.6273 19.336 36.3413 19.336 37.256ZM14.702 32.86C14.702 33.0653 14.7673 33.2473 14.898 33.406C15.0287 33.5553 15.2527 33.7093 15.57 33.868V31.908C15.29 31.964 15.0753 32.076 14.926 32.244C14.7767 32.412 14.702 32.6173 14.702 32.86ZM16.508 38.25C17.1053 38.1193 17.404 37.7927 17.404 37.27C17.404 37.0367 17.3293 36.8407 17.18 36.682C17.04 36.5233 16.816 36.374 16.508 36.234V38.25ZM22.4136 30.2H24.0936V40H22.1616V32.244L20.3136 32.762L19.8376 31.11L22.4136 30.2ZM32.5177 33.406C32.5177 34.162 32.3217 34.8247 31.9297 35.394H31.9437L28.8917 40H26.6797L28.8637 36.808C27.8463 36.7893 27.0157 36.4673 26.3717 35.842C25.737 35.2073 25.4197 34.3953 25.4197 33.406C25.4197 32.4073 25.7463 31.5907 26.3997 30.956C27.0623 30.3213 27.9163 30.004 28.9617 30.004C30.0163 30.004 30.8703 30.3213 31.5237 30.956C32.1863 31.5813 32.5177 32.398 32.5177 33.406ZM27.3377 33.406C27.3377 33.8913 27.4917 34.2787 27.7997 34.568C28.117 34.8573 28.5043 35.002 28.9617 35.002C29.4377 35.002 29.8297 34.8573 30.1377 34.568C30.4457 34.2787 30.5997 33.8913 30.5997 33.406C30.5997 32.9207 30.4457 32.538 30.1377 32.258C29.8297 31.9687 29.4377 31.824 28.9617 31.824C28.5043 31.824 28.117 31.9687 27.7997 32.258C27.4917 32.5473 27.3377 32.93 27.3377 33.406ZM34.0869 38.068L33.0369 41.96H31.5669L32.1269 38.068H34.0869ZM34.9593 30.2H41.2873V31.838L37.9693 40H35.9253L39.1453 32.048H34.9593V30.2ZM45.1368 33.77C46.0795 33.77 46.8728 34.0547 47.5168 34.624C48.1608 35.184 48.4828 35.968 48.4828 36.976C48.4828 37.984 48.1421 38.7727 47.4608 39.342C46.7888 39.9113 45.9628 40.196 44.9828 40.196C44.1895 40.196 43.4895 40.0187 42.8828 39.664C42.2761 39.3093 41.8375 38.7867 41.5668 38.096L43.2188 37.13C43.4615 37.914 44.0495 38.306 44.9828 38.306C45.4775 38.306 45.8601 38.1893 46.1308 37.956C46.4108 37.7133 46.5508 37.3867 46.5508 36.976C46.5508 36.5747 46.4155 36.2527 46.1448 36.01C45.8741 35.7673 45.5055 35.646 45.0388 35.646H42.0708L42.4628 30.2H48.0208V32.006H44.2548L44.1288 33.77H45.1368ZM53.2147 40.196C51.992 40.196 51.0307 39.734 50.3307 38.81C49.64 37.8767 49.2947 36.64 49.2947 35.1C49.2947 33.56 49.64 32.328 50.3307 31.404C51.0307 30.4707 51.992 30.004 53.2147 30.004C54.4467 30.004 55.408 30.4707 56.0987 31.404C56.7894 32.328 57.1347 33.56 57.1347 35.1C57.1347 36.64 56.7894 37.8767 56.0987 38.81C55.408 39.734 54.4467 40.196 53.2147 40.196ZM51.7307 37.494C52.0667 38.0353 52.5614 38.306 53.2147 38.306C53.868 38.306 54.3627 38.0307 54.6987 37.48C55.044 36.9293 55.2167 36.136 55.2167 35.1C55.2167 34.0547 55.044 33.2567 54.6987 32.706C54.3627 32.1553 53.868 31.88 53.2147 31.88C52.5614 31.88 52.0667 32.1553 51.7307 32.706C51.3947 33.2567 51.2267 34.0547 51.2267 35.1C51.2267 36.1453 51.3947 36.9433 51.7307 37.494Z" fill="white"/>
<path d="M12.32 69V68.496L14.336 66.464C14.912 65.888 15.2 65.3947 15.2 64.984C15.2 64.6267 15.088 64.3493 14.864 64.152C14.6453 63.9493 14.3813 63.848 14.072 63.848C13.496 63.848 13.0773 64.112 12.816 64.64L12.344 64.36C12.52 64.0133 12.76 63.752 13.064 63.576C13.368 63.3947 13.704 63.304 14.072 63.304C14.52 63.304 14.912 63.456 15.248 63.76C15.5893 64.0587 15.76 64.4667 15.76 64.984C15.76 65.3093 15.6693 65.6213 15.488 65.92C15.3067 66.2187 15.0507 66.5333 14.72 66.864L13.12 68.456H15.88V69H12.32ZM18.501 65.728C18.949 65.7867 19.317 65.96 19.605 66.248C19.8983 66.5307 20.045 66.9067 20.045 67.376C20.045 67.9093 19.861 68.3307 19.493 68.64C19.1303 68.944 18.6877 69.096 18.165 69.096C17.749 69.096 17.3783 69 17.053 68.808C16.7277 68.616 16.4983 68.3413 16.365 67.984L16.829 67.712C16.9197 67.9893 17.0823 68.2 17.317 68.344C17.5517 68.4827 17.8343 68.552 18.165 68.552C18.549 68.552 18.8637 68.4507 19.109 68.248C19.3597 68.04 19.485 67.7493 19.485 67.376C19.485 67.0027 19.3597 66.7147 19.109 66.512C18.8637 66.304 18.549 66.2 18.165 66.2V66.192L18.157 66.2H18.005L17.765 65.832L19.157 63.928H16.525V63.4H19.805V63.928L18.501 65.728ZM22.4481 65.656C22.9708 65.656 23.4135 65.8107 23.7761 66.12C24.1441 66.424 24.3281 66.8427 24.3281 67.376C24.3281 67.9093 24.1441 68.3307 23.7761 68.64C23.4135 68.944 22.9708 69.096 22.4481 69.096C22.0268 69.096 21.6508 68.9947 21.3201 68.792C20.9895 68.584 20.7655 68.288 20.6481 67.904L21.1201 67.632C21.2001 67.9307 21.3575 68.16 21.5921 68.32C21.8321 68.4747 22.1175 68.552 22.4481 68.552C22.8321 68.552 23.1468 68.4507 23.3921 68.248C23.6428 68.04 23.7681 67.7493 23.7681 67.376C23.7681 67.0027 23.6428 66.7147 23.3921 66.512C23.1468 66.304 22.8321 66.2 22.4481 66.2H20.9281L21.1281 63.4H24.1281V63.928H21.6241L21.5041 65.656H22.4481ZM24.7303 63.4H28.1703V63.928L26.0583 69H25.4743L27.5863 63.928H24.7303V63.4ZM32.0922 63.4H32.5722V69H32.0122V64.016L30.7562 64.392L30.6122 63.912L32.0922 63.4ZM35.3309 65.4C35.8803 65.4 36.3309 65.5733 36.6829 65.92C37.0349 66.2613 37.2109 66.704 37.2109 67.248C37.2109 67.792 37.0349 68.2373 36.6829 68.584C36.3309 68.9253 35.8803 69.096 35.3309 69.096C34.7816 69.096 34.3309 68.9253 33.9789 68.584C33.6269 68.2373 33.4509 67.792 33.4509 67.248C33.4509 66.8267 33.5656 66.4533 33.7949 66.128L35.6269 63.4H36.2589L34.8829 65.448C35.0269 65.416 35.1763 65.4 35.3309 65.4ZM34.3709 68.192C34.6163 68.432 34.9363 68.552 35.3309 68.552C35.7256 68.552 36.0429 68.432 36.2829 68.192C36.5283 67.952 36.6509 67.6373 36.6509 67.248C36.6509 66.8587 36.5283 66.544 36.2829 66.304C36.0429 66.064 35.7256 65.944 35.3309 65.944C34.9363 65.944 34.6163 66.064 34.3709 66.304C34.1309 66.544 34.0109 66.8587 34.0109 67.248C34.0109 67.6373 34.1309 67.952 34.3709 68.192ZM40.5891 66.112C40.8718 66.2453 41.0958 66.432 41.2611 66.672C41.4318 66.9067 41.5171 67.176 41.5171 67.48C41.5171 67.9867 41.3385 68.384 40.9811 68.672C40.6238 68.9547 40.1785 69.096 39.6451 69.096C39.1118 69.096 38.6665 68.9547 38.3091 68.672C37.9518 68.384 37.7731 67.9867 37.7731 67.48C37.7731 67.176 37.8558 66.9067 38.0211 66.672C38.1918 66.432 38.4185 66.2453 38.7011 66.112C38.2051 65.8293 37.9571 65.4107 37.9571 64.856C37.9571 64.3547 38.1225 63.9707 38.4531 63.704C38.7891 63.4373 39.1865 63.304 39.6451 63.304C40.1038 63.304 40.4985 63.4373 40.8291 63.704C41.1651 63.9707 41.3331 64.3547 41.3331 64.856C41.3331 65.4107 41.0851 65.8293 40.5891 66.112ZM40.4451 64.096C40.2318 63.9307 39.9651 63.848 39.6451 63.848C39.3251 63.848 39.0558 63.9307 38.8371 64.096C38.6238 64.2613 38.5171 64.5147 38.5171 64.856C38.5171 65.176 38.6265 65.424 38.8451 65.6C39.0691 65.776 39.3358 65.864 39.6451 65.864C39.9545 65.864 40.2185 65.776 40.4371 65.6C40.6611 65.424 40.7731 65.176 40.7731 64.856C40.7731 64.5147 40.6638 64.2613 40.4451 64.096ZM38.6931 68.28C38.9331 68.4613 39.2505 68.552 39.6451 68.552C40.0398 68.552 40.3571 68.4613 40.5971 68.28C40.8371 68.0933 40.9571 67.8267 40.9571 67.48C40.9571 67.1333 40.8371 66.8693 40.5971 66.688C40.3571 66.5013 40.0398 66.408 39.6451 66.408C39.2505 66.408 38.9331 66.5013 38.6931 66.688C38.4531 66.8693 38.3331 67.1333 38.3331 67.48C38.3331 67.8267 38.4531 68.0933 38.6931 68.28ZM45.8359 65.152C45.8359 65.5733 45.7213 65.9467 45.4919 66.272L43.6599 69H43.0279L44.4039 66.952C44.2599 66.984 44.1106 67 43.9559 67C43.4066 67 42.9559 66.8293 42.6039 66.488C42.2519 66.1413 42.0759 65.696 42.0759 65.152C42.0759 64.608 42.2519 64.1653 42.6039 63.824C42.9559 63.4773 43.4066 63.304 43.9559 63.304C44.5053 63.304 44.9559 63.4773 45.3079 63.824C45.6599 64.1653 45.8359 64.608 45.8359 65.152ZM42.9959 64.208C42.7559 64.448 42.6359 64.7627 42.6359 65.152C42.6359 65.5413 42.7559 65.856 42.9959 66.096C43.2413 66.336 43.5613 66.456 43.9559 66.456C44.3506 66.456 44.6679 66.336 44.9079 66.096C45.1533 65.856 45.2759 65.5413 45.2759 65.152C45.2759 64.7627 45.1533 64.448 44.9079 64.208C44.6679 63.968 44.3506 63.848 43.9559 63.848C43.5613 63.848 43.2413 63.968 42.9959 64.208ZM50.1981 65.4C50.7475 65.4 51.1981 65.5733 51.5501 65.92C51.9021 66.2613 52.0781 66.704 52.0781 67.248C52.0781 67.792 51.9021 68.2373 51.5501 68.584C51.1981 68.9253 50.7475 69.096 50.1981 69.096C49.6488 69.096 49.1981 68.9253 48.8461 68.584C48.4941 68.2373 48.3181 67.792 48.3181 67.248C48.3181 66.8267 48.4328 66.4533 48.6621 66.128L50.4941 63.4H51.1261L49.7501 65.448C49.8941 65.416 50.0435 65.4 50.1981 65.4ZM49.2381 68.192C49.4835 68.432 49.8035 68.552 50.1981 68.552C50.5928 68.552 50.9101 68.432 51.1501 68.192C51.3955 67.952 51.5181 67.6373 51.5181 67.248C51.5181 66.8587 51.3955 66.544 51.1501 66.304C50.9101 66.064 50.5928 65.944 50.1981 65.944C49.8035 65.944 49.4835 66.064 49.2381 66.304C48.9981 66.544 48.8781 66.8587 48.8781 67.248C48.8781 67.6373 48.9981 67.952 49.2381 68.192ZM52.5231 69V68.496L54.5391 66.464C55.1151 65.888 55.4031 65.3947 55.4031 64.984C55.4031 64.6267 55.2911 64.3493 55.0671 64.152C54.8485 63.9493 54.5845 63.848 54.2751 63.848C53.6991 63.848 53.2805 64.112 53.0191 64.64L52.5471 64.36C52.7231 64.0133 52.9631 63.752 53.2671 63.576C53.5711 63.3947 53.9071 63.304 54.2751 63.304C54.7231 63.304 55.1151 63.456 55.4511 63.76C55.7925 64.0587 55.9631 64.4667 55.9631 64.984C55.9631 65.3093 55.8725 65.6213 55.6911 65.92C55.5098 66.2187 55.2538 66.5333 54.9231 66.864L53.3231 68.456H56.0831V69H52.5231ZM58.4872 65.656C59.0099 65.656 59.4525 65.8107 59.8152 66.12C60.1832 66.424 60.3672 66.8427 60.3672 67.376C60.3672 67.9093 60.1832 68.3307 59.8152 68.64C59.4525 68.944 59.0099 69.096 58.4872 69.096C58.0659 69.096 57.6899 68.9947 57.3592 68.792C57.0285 68.584 56.8045 68.288 56.6872 67.904L57.1592 67.632C57.2392 67.9307 57.3965 68.16 57.6312 68.32C57.8712 68.4747 58.1565 68.552 58.4872 68.552C58.8712 68.552 59.1859 68.4507 59.4312 68.248C59.6819 68.04 59.8072 67.7493 59.8072 67.376C59.8072 67.0027 59.6819 66.7147 59.4312 66.512C59.1859 66.304 58.8712 66.2 58.4872 66.2H56.9672L57.1672 63.4H60.1672V63.928H57.6632L57.5432 65.656H58.4872ZM62.2094 63.4H62.6894V69H62.1294V64.016L60.8734 64.392L60.7294 63.912L62.2094 63.4ZM69.4081 68.312C69.0401 68.8347 68.5201 69.096 67.8481 69.096C67.1761 69.096 66.6535 68.8347 66.2801 68.312C65.9121 67.784 65.7281 67.08 65.7281 66.2C65.7281 65.32 65.9121 64.6187 66.2801 64.096C66.6535 63.568 67.1761 63.304 67.8481 63.304C68.5201 63.304 69.0401 63.568 69.4081 64.096C69.7815 64.6187 69.9681 65.32 69.9681 66.2C69.9681 67.08 69.7815 67.784 69.4081 68.312ZM66.6961 67.936C66.9735 68.3467 67.3575 68.552 67.8481 68.552C68.3388 68.552 68.7201 68.3467 68.9921 67.936C69.2695 67.5253 69.4081 66.9467 69.4081 66.2C69.4081 65.4533 69.2695 64.8747 68.9921 64.464C68.7201 64.0533 68.3388 63.848 67.8481 63.848C67.3575 63.848 66.9735 64.0533 66.6961 64.464C66.4241 64.8747 66.2881 65.4533 66.2881 66.2C66.2881 66.9467 66.4241 67.5253 66.6961 67.936ZM72.5869 65.728C73.0349 65.7867 73.4029 65.96 73.6909 66.248C73.9843 66.5307 74.1309 66.9067 74.1309 67.376C74.1309 67.9093 73.9469 68.3307 73.5789 68.64C73.2163 68.944 72.7736 69.096 72.2509 69.096C71.8349 69.096 71.4643 69 71.1389 68.808C70.8136 68.616 70.5843 68.3413 70.4509 67.984L70.9149 67.712C71.0056 67.9893 71.1683 68.2 71.4029 68.344C71.6376 68.4827 71.9203 68.552 72.2509 68.552C72.6349 68.552 72.9496 68.4507 73.1949 68.248C73.4456 68.04 73.5709 67.7493 73.5709 67.376C73.5709 67.0027 73.4456 66.7147 73.1949 66.512C72.9496 66.304 72.6349 66.2 72.2509 66.2V66.192L72.2429 66.2H72.0909L71.8509 65.832L73.2429 63.928H70.6109V63.4H73.8909V63.928L72.5869 65.728ZM77.5891 66.112C77.8718 66.2453 78.0958 66.432 78.2611 66.672C78.4318 66.9067 78.5171 67.176 78.5171 67.48C78.5171 67.9867 78.3385 68.384 77.9811 68.672C77.6238 68.9547 77.1785 69.096 76.6451 69.096C76.1118 69.096 75.6665 68.9547 75.3091 68.672C74.9518 68.384 74.7731 67.9867 74.7731 67.48C74.7731 67.176 74.8558 66.9067 75.0211 66.672C75.1918 66.432 75.4185 66.2453 75.7011 66.112C75.2051 65.8293 74.9571 65.4107 74.9571 64.856C74.9571 64.3547 75.1225 63.9707 75.4531 63.704C75.7891 63.4373 76.1865 63.304 76.6451 63.304C77.1038 63.304 77.4985 63.4373 77.8291 63.704C78.1651 63.9707 78.3331 64.3547 78.3331 64.856C78.3331 65.4107 78.0851 65.8293 77.5891 66.112ZM77.4451 64.096C77.2318 63.9307 76.9651 63.848 76.6451 63.848C76.3251 63.848 76.0558 63.9307 75.8371 64.096C75.6238 64.2613 75.5171 64.5147 75.5171 64.856C75.5171 65.176 75.6265 65.424 75.8451 65.6C76.0691 65.776 76.3358 65.864 76.6451 65.864C76.9545 65.864 77.2185 65.776 77.4371 65.6C77.6611 65.424 77.7731 65.176 77.7731 64.856C77.7731 64.5147 77.6638 64.2613 77.4451 64.096ZM75.6931 68.28C75.9331 68.4613 76.2505 68.552 76.6451 68.552C77.0398 68.552 77.3571 68.4613 77.5971 68.28C77.8371 68.0933 77.9571 67.8267 77.9571 67.48C77.9571 67.1333 77.8371 66.8693 77.5971 66.688C77.3571 66.5013 77.0398 66.408 76.6451 66.408C76.2505 66.408 75.9331 66.5013 75.6931 66.688C75.4531 66.8693 75.3331 67.1333 75.3331 67.48C75.3331 67.8267 75.4531 68.0933 75.6931 68.28ZM82.9159 68.312C82.5479 68.8347 82.0279 69.096 81.3559 69.096C80.6839 69.096 80.1613 68.8347 79.7879 68.312C79.4199 67.784 79.2359 67.08 79.2359 66.2C79.2359 65.32 79.4199 64.6187 79.7879 64.096C80.1613 63.568 80.6839 63.304 81.3559 63.304C82.0279 63.304 82.5479 63.568 82.9159 64.096C83.2893 64.6187 83.4759 65.32 83.4759 66.2C83.4759 67.08 83.2893 67.784 82.9159 68.312ZM80.2039 67.936C80.4813 68.3467 80.8653 68.552 81.3559 68.552C81.8466 68.552 82.2279 68.3467 82.4999 67.936C82.7773 67.5253 82.9159 66.9467 82.9159 66.2C82.9159 65.4533 82.7773 64.8747 82.4999 64.464C82.2279 64.0533 81.8466 63.848 81.3559 63.848C80.8653 63.848 80.4813 64.0533 80.2039 64.464C79.9319 64.8747 79.7959 65.4533 79.7959 66.2C79.7959 66.9467 79.9319 67.5253 80.2039 67.936Z" fill="white"/>
<path d="M15.06 81.484C14.784 81.876 14.394 82.072 13.89 82.072C13.386 82.072 12.994 81.876 12.714 81.484C12.438 81.088 12.3 80.56 12.3 79.9C12.3 79.24 12.438 78.714 12.714 78.322C12.994 77.926 13.386 77.728 13.89 77.728C14.394 77.728 14.784 77.926 15.06 78.322C15.34 78.714 15.48 79.24 15.48 79.9C15.48 80.56 15.34 81.088 15.06 81.484ZM13.026 81.202C13.234 81.51 13.522 81.664 13.89 81.664C14.258 81.664 14.544 81.51 14.748 81.202C14.956 80.894 15.06 80.46 15.06 79.9C15.06 79.34 14.956 78.906 14.748 78.598C14.544 78.29 14.258 78.136 13.89 78.136C13.522 78.136 13.234 78.29 13.026 78.598C12.822 78.906 12.72 79.34 12.72 79.9C12.72 80.46 12.822 80.894 13.026 81.202ZM17.3693 79.3C17.7813 79.3 18.1193 79.43 18.3833 79.69C18.6473 79.946 18.7793 80.278 18.7793 80.686C18.7793 81.094 18.6473 81.428 18.3833 81.688C18.1193 81.944 17.7813 82.072 17.3693 82.072C16.9573 82.072 16.6193 81.944 16.3553 81.688C16.0913 81.428 15.9593 81.094 15.9593 80.686C15.9593 80.37 16.0453 80.09 16.2173 79.846L17.5913 77.8H18.0653L17.0333 79.336C17.1413 79.312 17.2533 79.3 17.3693 79.3ZM16.6493 81.394C16.8333 81.574 17.0733 81.664 17.3693 81.664C17.6653 81.664 17.9033 81.574 18.0833 81.394C18.2673 81.214 18.3593 80.978 18.3593 80.686C18.3593 80.394 18.2673 80.158 18.0833 79.978C17.9033 79.798 17.6653 79.708 17.3693 79.708C17.0733 79.708 16.8333 79.798 16.6493 79.978C16.4693 80.158 16.3793 80.394 16.3793 80.686C16.3793 80.978 16.4693 81.214 16.6493 81.394ZM21.0009 82.6H20.7009L23.1009 77.2H23.4009L21.0009 82.6ZM25.3826 82V81.622L26.8946 80.098C27.3266 79.666 27.5426 79.296 27.5426 78.988C27.5426 78.72 27.4586 78.512 27.2906 78.364C27.1266 78.212 26.9286 78.136 26.6966 78.136C26.2646 78.136 25.9506 78.334 25.7546 78.73L25.4006 78.52C25.5326 78.26 25.7126 78.064 25.9406 77.932C26.1686 77.796 26.4206 77.728 26.6966 77.728C27.0326 77.728 27.3266 77.842 27.5786 78.07C27.8346 78.294 27.9626 78.6 27.9626 78.988C27.9626 79.232 27.8946 79.466 27.7586 79.69C27.6226 79.914 27.4306 80.15 27.1826 80.398L25.9826 81.592H28.0526V82H25.3826ZM31.2963 81.484C31.0203 81.876 30.6303 82.072 30.1263 82.072C29.6223 82.072 29.2303 81.876 28.9503 81.484C28.6743 81.088 28.5363 80.56 28.5363 79.9C28.5363 79.24 28.6743 78.714 28.9503 78.322C29.2303 77.926 29.6223 77.728 30.1263 77.728C30.6303 77.728 31.0203 77.926 31.2963 78.322C31.5763 78.714 31.7163 79.24 31.7163 79.9C31.7163 80.56 31.5763 81.088 31.2963 81.484ZM29.2623 81.202C29.4703 81.51 29.7583 81.664 30.1263 81.664C30.4943 81.664 30.7803 81.51 30.9843 81.202C31.1923 80.894 31.2963 80.46 31.2963 79.9C31.2963 79.34 31.1923 78.906 30.9843 78.598C30.7803 78.29 30.4943 78.136 30.1263 78.136C29.7583 78.136 29.4703 78.29 29.2623 78.598C29.0583 78.906 28.9563 79.34 28.9563 79.9C28.9563 80.46 29.0583 80.894 29.2623 81.202ZM32.197 82V81.622L33.709 80.098C34.141 79.666 34.357 79.296 34.357 78.988C34.357 78.72 34.273 78.512 34.105 78.364C33.941 78.212 33.743 78.136 33.511 78.136C33.079 78.136 32.765 78.334 32.569 78.73L32.215 78.52C32.347 78.26 32.527 78.064 32.755 77.932C32.983 77.796 33.235 77.728 33.511 77.728C33.847 77.728 34.141 77.842 34.393 78.07C34.649 78.294 34.777 78.6 34.777 78.988C34.777 79.232 34.709 79.466 34.573 79.69C34.437 79.914 34.245 80.15 33.997 80.398L32.797 81.592H34.867V82H32.197ZM38.3222 80.764V81.16H37.7822V82H37.3622V81.16H35.1422V80.764L36.7022 77.8H37.1642L35.6042 80.764H37.3622V79.48H37.7822V80.764H38.3222Z" fill="white"/>
<path d="M139.445 76.2861C138.886 76.0941 138.297 75.9972 137.703 76.0001C135.785 76.0001 134.43 76.9217 134.422 78.2406C134.406 79.2101 135.382 79.7565 136.12 80.0832C136.878 80.4177 137.132 80.626 137.128 80.9228C137.124 81.38 136.522 81.584 135.968 81.584C135.198 81.584 134.78 81.4842 134.136 81.2274L133.897 81.1197L133.624 82.6433C134.092 82.8252 134.932 82.985 135.799 83C137.842 83 139.174 82.0862 139.189 80.6774C139.205 79.9048 138.682 79.3185 137.568 78.8348C136.896 78.5231 136.476 78.3105 136.476 77.991C136.476 77.7085 136.835 77.4117 137.585 77.4117C138.083 77.3999 138.578 77.4871 139.038 77.6678L139.221 77.7456L139.491 76.2783L139.445 76.2861ZM144.43 76.1263H142.93C142.461 76.1263 142.113 76.2454 141.906 76.6877L139.023 82.903H141.063L141.474 81.8851L143.961 81.8886C144.024 82.1262 144.199 82.9023 144.199 82.9023H146L144.43 76.1263ZM131.66 76.0707H133.602L132.387 82.8502H130.445L131.66 76.0671V76.0707ZM126.723 79.8043L126.921 80.748L128.823 76.1263H130.882L127.819 82.8916H125.77L124.09 77.1628C124.077 77.1152 124.054 77.0706 124.022 77.0317C123.991 76.9929 123.951 76.9605 123.906 76.9367C123.302 76.6381 122.662 76.4122 122 76.264L122.023 76.122H125.156C125.578 76.137 125.922 76.264 126.039 76.6948L126.723 79.8078V79.8043ZM142.027 80.4991L142.805 78.6009C142.793 78.6187 142.965 78.2107 143.062 77.9539L143.195 78.5367L143.645 80.4948H142.027V80.4991Z" fill="white"/>
<path d="M135.13 13.0771C133.425 13.0771 132 14.503 132 16.2072V21.7938C132 23.4975 133.426 24.9233 135.13 24.9233H142.87C144.574 24.9233 146 23.4975 146 21.7932V16.2072C146 14.5035 144.574 13.0771 142.87 13.0771H135.13ZM135.13 14.1541H142.87C143.966 14.1541 144.923 15.1109 144.923 16.2072V16.8464H141.692C141.393 16.8464 141.154 16.6068 141.154 16.3079C141.154 16.0091 141.393 15.7695 141.692 15.7695C141.835 15.7695 141.972 15.7127 142.073 15.6117C142.174 15.5108 142.231 15.3738 142.231 15.231C142.231 15.0882 142.174 14.9512 142.073 14.8502C141.972 14.7493 141.835 14.6925 141.692 14.6925C140.807 14.6925 140.077 15.4221 140.077 16.3079C140.077 17.0036 140.531 17.597 141.154 17.8226V20.4977C140.509 20.936 140.077 21.6715 140.077 22.5002C140.077 22.9972 140.235 23.4592 140.497 23.8464H137.503C137.775 23.4501 137.922 22.981 137.923 22.5002C137.923 21.6721 137.491 20.936 136.846 20.4977V17.8221C137.469 17.597 137.923 17.0036 137.923 16.3079C137.923 15.4221 137.193 14.6925 136.308 14.6925H135.231C135.214 14.6917 135.197 14.6917 135.18 14.6925C135.163 14.6918 135.147 14.6918 135.13 14.6925C134.987 14.7059 134.856 14.7754 134.764 14.8858C134.673 14.9963 134.629 15.1385 134.642 15.2813C134.655 15.4241 134.725 15.5558 134.835 15.6473C134.946 15.7389 135.088 15.7828 135.231 15.7695H136.308C136.607 15.7695 136.846 16.0091 136.846 16.3079C136.846 16.6068 136.607 16.8464 136.308 16.8464H133.077V16.2067C133.077 15.1109 134.034 14.1541 135.13 14.1541ZM133.077 17.9233H135.769V20.0771H133.077V17.9233ZM142.231 17.9233H144.923V20.0771H142.231V17.9233ZM133.077 21.1541H135.5C136.221 21.1541 136.846 21.7792 136.846 22.5002C136.846 23.2212 136.221 23.8464 135.5 23.8464H135.13C134.034 23.8464 133.077 22.8895 133.077 21.7932V21.1541ZM142.5 21.1541H144.923V21.7938C144.923 22.8895 143.966 23.8464 142.87 23.8464H142.5C141.779 23.8464 141.154 23.2212 141.154 22.5002C141.154 21.7792 141.779 21.1541 142.5 21.1541Z" fill="white"/>
<defs>
<linearGradient id="paint0_linear_108_2" x1="0" y1="47.4878" x2="157.991" y2="47.4878" gradientUnits="userSpaceOnUse">
<stop stop-color="#DC2430"/>
<stop offset="1" stop-color="#7B4397"/>
</linearGradient>
<linearGradient id="paint1_linear_108_2" x1="79.3055" y1="92.3195" x2="131.691" y2="59.1788" gradientUnits="userSpaceOnUse">
<stop stop-color="#7B4397" stop-opacity="0"/>
<stop offset="1" stop-color="#7B4397" stop-opacity="0.8"/>
</linearGradient>
<linearGradient id="paint2_linear_108_2" x1="80.987" y1="47" x2="80.987" y2="100.837" gradientUnits="userSpaceOnUse">
<stop offset="0.3014" stop-color="#DC2430"/>
<stop offset="1" stop-color="#DC2430" stop-opacity="0"/>
</linearGradient>
</defs>
</svg>
