<svg width="132" height="50" viewBox="0 0 132 50" fill="none" xmlns="http://www.w3.org/2000/svg">
<path d="M14.7486 35.5818C10.324 40.8943 6.63687 45.4478 0 44.6889V50H132V0.670465C131.508 0.164516 129.64 -0.543812 126.101 0.670465C121.676 2.18831 112.089 16.6079 103.24 21.1614C94.3911 25.7149 84.8045 15.0893 75.9553 14.3304C67.1061 13.5714 63.419 27.991 55.3073 29.5088C47.1955 31.0267 41.2961 26.4747 33.1844 24.9569C25.0726 23.439 19.1732 30.2694 14.7486 35.5818Z" fill="url(#paint0_linear_141_4)"/>
<path d="M12 38.6523C12.7346 39.4455 14.9383 40.2388 17.8765 37.0659C21.5494 33.0998 23.7531 23.5812 32.5679 21.9948C41.3827 20.4083 43.5864 29.1337 54.6049 31.5134C65.6235 33.893 69.2963 31.514 75.1728 27.548C81.0494 23.5819 87.6605 8.51074 97.9444 8.51074C108.228 8.51074 111.901 11.6836 119.247 19.6158C125.123 25.9615 129.531 27.548 131 27.548" stroke="#894BA9" stroke-width="0.5"/>
<defs>
<linearGradient id="paint0_linear_141_4" x1="106.19" y1="3.03569" x2="104.628" y2="52.3629" gradientUnits="userSpaceOnUse">
<stop stop-color="#7B4397"/>
<stop offset="1" stop-color="#7B4397" stop-opacity="0"/>
</linearGradient>
</defs>
</svg>
