<svg width="544" height="146" viewBox="0 0 544 146" fill="none" xmlns="http://www.w3.org/2000/svg">
<line id="OutlayGRaphic_line1" x1="543" y1="103.5" x2="1" y2="103.5" stroke="#1D1E2C" stroke-dasharray="2 2"/>
<line x1="543" y1="69.5" x2="1" y2="69.4999" stroke="#1D1E2C" stroke-dasharray="2 2"/>
<line x1="543" y1="35.5" x2="1" y2="35.4999" stroke="#1D1E2C" stroke-dasharray="2 2"/>
<path d="M1.18167 139L1 1.16818C1 1.16818 17.8495 -2.71511 32.0194 26.8383C46.1894 56.3917 51.5031 63.1496 66.0364 64.8643C80.5696 66.579 85.8834 61.8384 97.8279 52.6093C109.772 43.3801 130.8 47.4147 139.611 58.3586C148.422 69.3024 149.466 75.9595 156.461 83.8774C163.455 91.7953 168.541 97.5445 178.669 91.9465C188.797 86.3485 189.842 74.0935 196.972 55.3326C204.102 36.5717 210.461 23.7619 222.133 22.1985C233.805 20.6351 239.8 29.4103 249.383 42.9262C258.965 56.4926 266.232 65.1165 279.63 68.9998C292.982 72.8831 306.471 66.8312 314.283 60.7793C322.049 54.7274 337.627 40.455 354.658 50.9954C371.689 61.5358 368.692 79.2376 381.772 87.1555C394.897 95.0734 404.889 95.0734 410.566 88.0128C416.288 80.9523 417.832 76.2116 422.238 62.2418C426.643 48.2721 436.362 35.8657 451.032 39.3455C465.701 42.8254 468.562 55.9378 471.424 69.3024C474.285 82.7174 477.509 97.5445 488.954 104.302C500.399 111.06 511.39 113.38 523.471 108.488C535.552 103.596 543 99.5618 543 99.5618V138.95" fill="url(#paint0_linear_148_25)"/>
<path d="M1.18167 139L1 1.16818C1 1.16818 17.8495 -2.71511 32.0194 26.8383C46.1894 56.3917 51.5031 63.1496 66.0364 64.8643C80.5696 66.579 85.8834 61.8384 97.8279 52.6093C109.772 43.3801 130.8 47.4147 139.611 58.3586C148.422 69.3024 149.466 75.9595 156.461 83.8774C163.455 91.7953 168.541 97.5445 178.669 91.9465C188.797 86.3485 189.842 74.0935 196.972 55.3326C204.102 36.5717 210.461 23.7619 222.133 22.1985C233.805 20.6351 239.8 29.4103 249.383 42.9262C258.965 56.4926 266.232 65.1165 279.63 68.9998C292.982 72.8831 306.471 66.8312 314.283 60.7793C322.049 54.7274 337.627 40.455 354.658 50.9954C371.689 61.5358 368.692 79.2376 381.772 87.1555C394.897 95.0734 404.889 95.0734 410.566 88.0128C416.288 80.9523 417.832 76.2116 422.238 62.2418C426.643 48.2721 436.362 35.8657 451.032 39.3455C465.701 42.8254 468.562 55.9378 471.424 69.3024C474.285 82.7174 477.509 97.5445 488.954 104.302C500.399 111.06 511.39 113.38 523.471 108.488C535.552 103.596 543 99.5618 543 99.5618V138.95" stroke="#894BA9" stroke-miterlimit="10"/>
<path d="M1 138.943V99.0383C1 99.0383 27.9864 113.482 45.2959 107.088C62.6054 100.694 67.2848 92.8727 71.6008 70.6084C75.9169 48.344 92.6357 32.4164 104.312 39.267C115.988 46.1175 119.122 61.7597 127.891 78.4295C136.659 95.0992 145.427 94.8137 155.559 91.9023C165.69 88.9908 170.142 78.9432 174.049 71.1222C177.956 63.3011 187.088 46.1746 205.215 47.3735C223.343 48.5723 229.158 65.0137 244.332 67.6969C259.506 70.38 270.228 72.321 281.722 57.1926C293.217 42.0643 311.889 13.8627 328.063 24.424C344.236 34.9283 349.098 67.2402 354.913 78.0298C360.774 88.8195 372.222 102.521 383.716 88.3057C395.211 74.0907 406.296 43.2631 433.737 48.9149C461.178 54.5666 453.227 69.5237 475.216 65.4704C497.205 61.4172 501.112 51.598 510.471 31.3317C519.83 11.0654 529.143 0.504101 543 1.01789V139" fill="url(#paint1_linear_148_25)"/>
<path d="M1 138.943V99.0383C1 99.0383 27.9864 113.482 45.2959 107.088C62.6054 100.694 67.2848 92.8727 71.6008 70.6084C75.9169 48.344 92.6357 32.4164 104.312 39.267C115.988 46.1175 119.122 61.7597 127.891 78.4295C136.659 95.0992 145.427 94.8137 155.559 91.9023C165.69 88.9908 170.142 78.9432 174.049 71.1222C177.956 63.3011 187.088 46.1746 205.215 47.3735C223.343 48.5723 229.158 65.0137 244.332 67.6969C259.506 70.38 270.228 72.321 281.722 57.1926C293.217 42.0643 311.889 13.8627 328.063 24.424C344.236 34.9283 349.098 67.2402 354.913 78.0298C360.774 88.8195 372.222 102.521 383.716 88.3057C395.211 74.0907 406.296 43.2631 433.737 48.9149C461.178 54.5666 453.227 69.5237 475.216 65.4704C497.205 61.4172 501.112 51.598 510.471 31.3317C519.83 11.0654 529.143 0.504101 543 1.01789V139" stroke="#E03A45" stroke-miterlimit="10"/>
<path d="M161.885 91.7692C163.478 91.7692 164.769 90.4777 164.769 88.8846C164.769 87.2915 163.478 86 161.885 86C160.291 86 159 87.2915 159 88.8846C159 90.4777 160.291 91.7692 161.885 91.7692Z" fill="url(#paint2_linear_148_25)"/>
<path d="M161.887 90.6173C162.842 90.6173 163.617 89.8424 163.617 88.8865C163.617 87.9307 162.842 87.1558 161.887 87.1558C160.931 87.1558 160.156 87.9307 160.156 88.8865C160.156 89.8424 160.931 90.6173 161.887 90.6173Z" fill="#24263A"/>
<line x1="341.273" y1="145.766" x2="341.273" y2="53.4579" stroke="#894BA9" stroke-dasharray="2 2"/>
<path fill-rule="evenodd" clip-rule="evenodd" d="M321.691 30.3789C320.035 30.3789 318.691 31.7221 318.691 33.3789V44.6866C318.691 46.3435 320.035 47.6866 321.691 47.6866H339.856L340.757 49.2461C340.949 49.5794 341.43 49.5794 341.623 49.2461L342.523 47.6866H361.845C363.502 47.6866 364.845 46.3435 364.845 44.6866V33.3789C364.845 31.7221 363.502 30.3789 361.845 30.3789H321.691Z" fill="#1D1E2C"/>
<path d="M333.154 40.3917C333.154 40.8077 333.013 41.157 332.73 41.4397C332.448 41.717 332.082 41.8797 331.634 41.9277V42.6477H331.154V41.9357C330.722 41.909 330.354 41.7943 330.05 41.5917C329.746 41.389 329.528 41.117 329.394 40.7757L329.874 40.4957C330.072 41.0397 330.498 41.3383 331.154 41.3917V39.1837C330.914 39.0983 330.72 39.021 330.57 38.9517C330.426 38.8823 330.277 38.789 330.122 38.6717C329.968 38.5543 329.853 38.4103 329.778 38.2397C329.709 38.069 329.674 37.869 329.674 37.6397C329.674 37.2237 329.813 36.885 330.09 36.6237C330.373 36.357 330.728 36.2023 331.154 36.1597V35.4477H331.634V36.1677C331.949 36.205 332.229 36.3117 332.474 36.4877C332.72 36.6637 332.906 36.901 333.034 37.1997L332.562 37.4637C332.392 37.037 332.082 36.789 331.634 36.7197V38.7997C331.869 38.8797 332.064 38.957 332.218 39.0317C332.373 39.1063 332.528 39.205 332.682 39.3277C332.842 39.4503 332.96 39.5997 333.034 39.7757C333.114 39.9517 333.154 40.157 333.154 40.3917ZM330.234 37.6397C330.234 37.885 330.309 38.0797 330.458 38.2237C330.608 38.3677 330.84 38.501 331.154 38.6237V36.7117C330.877 36.7437 330.653 36.8423 330.482 37.0077C330.317 37.1677 330.234 37.3783 330.234 37.6397ZM331.634 41.3837C331.933 41.341 332.168 41.2317 332.338 41.0557C332.509 40.8797 332.594 40.6583 332.594 40.3917C332.594 40.1303 332.514 39.925 332.354 39.7757C332.194 39.621 331.954 39.4797 331.634 39.3517V41.3837ZM333.793 41.8477V41.3437L335.809 39.3117C336.385 38.7357 336.673 38.2423 336.673 37.8317C336.673 37.4743 336.561 37.197 336.337 36.9997C336.118 36.797 335.854 36.6957 335.545 36.6957C334.969 36.6957 334.55 36.9597 334.289 37.4877L333.817 37.2077C333.993 36.861 334.233 36.5997 334.537 36.4237C334.841 36.2423 335.177 36.1517 335.545 36.1517C335.993 36.1517 336.385 36.3037 336.721 36.6077C337.062 36.9063 337.233 37.3143 337.233 37.8317C337.233 38.157 337.142 38.469 336.961 38.7677C336.779 39.0663 336.523 39.381 336.193 39.7117L334.593 41.3037H337.353V41.8477H333.793ZM337.68 36.2477H341.12V36.7757L339.008 41.8477H338.424L340.536 36.7757H337.68V36.2477ZM343.041 36.2477H343.521V41.8477H342.961V36.8637L341.705 37.2397L341.561 36.7597L343.041 36.2477ZM348.24 41.1597C347.872 41.6823 347.352 41.9437 346.68 41.9437C346.008 41.9437 345.485 41.6823 345.112 41.1597C344.744 40.6317 344.56 39.9277 344.56 39.0477C344.56 38.1677 344.744 37.4663 345.112 36.9437C345.485 36.4157 346.008 36.1517 346.68 36.1517C347.352 36.1517 347.872 36.4157 348.24 36.9437C348.613 37.4663 348.8 38.1677 348.8 39.0477C348.8 39.9277 348.613 40.6317 348.24 41.1597ZM345.528 40.7837C345.805 41.1943 346.189 41.3997 346.68 41.3997C347.171 41.3997 347.552 41.1943 347.824 40.7837C348.101 40.373 348.24 39.7943 348.24 39.0477C348.24 38.301 348.101 37.7223 347.824 37.3117C347.552 36.901 347.171 36.6957 346.68 36.6957C346.189 36.6957 345.805 36.901 345.528 37.3117C345.256 37.7223 345.12 38.301 345.12 39.0477C345.12 39.7943 345.256 40.373 345.528 40.7837Z" fill="#DBDFEA"/>
<path d="M341.193 56.9138C342.786 56.9138 344.078 55.6223 344.078 54.0291C344.078 52.436 342.786 51.1445 341.193 51.1445C339.6 51.1445 338.309 52.436 338.309 54.0291C338.309 55.6223 339.6 56.9138 341.193 56.9138Z" fill="url(#paint3_linear_148_25)"/>
<path d="M341.195 55.7618C342.151 55.7618 342.926 54.9869 342.926 54.0311C342.926 53.0752 342.151 52.3003 341.195 52.3003C340.239 52.3003 339.464 53.0752 339.464 54.0311C339.464 54.9869 340.239 55.7618 341.195 55.7618Z" fill="#24263A"/>
<defs>
<linearGradient id="paint0_linear_148_25" x1="272" y1="18.3173" x2="272" y2="139" gradientUnits="userSpaceOnUse">
<stop stop-color="#7B4397"/>
<stop offset="1" stop-color="#7B4397" stop-opacity="0"/>
</linearGradient>
<linearGradient id="paint1_linear_148_25" x1="272.16" y1="10.7127" x2="271.91" y2="139" gradientUnits="userSpaceOnUse">
<stop stop-color="#DC2430"/>
<stop offset="1" stop-color="#DC2430" stop-opacity="0"/>
</linearGradient>
<linearGradient id="paint2_linear_148_25" x1="161.885" y1="86" x2="161.885" y2="91.7692" gradientUnits="userSpaceOnUse">
<stop stop-color="#DC2430"/>
<stop offset="1" stop-color="#7B4397"/>
</linearGradient>
<linearGradient id="paint3_linear_148_25" x1="341.193" y1="51.1445" x2="341.193" y2="56.9138" gradientUnits="userSpaceOnUse">
<stop stop-color="#DC2430"/>
<stop offset="1" stop-color="#7B4397"/>
</linearGradient>
</defs>
</svg>
